<mxfile host="65bd71144e">
    <diagram id="lBIU2ctsqSp_3WniBqyX" name="travel">
        <mxGraphModel dx="586" dy="596" grid="1" gridSize="10" guides="1" tooltips="1" connect="1" arrows="1" fold="1" page="0" pageScale="1" pageWidth="827" pageHeight="1169" background="none" math="0" shadow="0">
            <root>
                <mxCell id="0"/>
                <mxCell id="1" parent="0"/>
                <mxCell id="qtuPSVXZJJs0NWljnbDn-1" value="" style="whiteSpace=wrap;html=1;aspect=fixed;" parent="1" vertex="1">
                    <mxGeometry y="130" width="760" height="760" as="geometry"/>
                </mxCell>
                <mxCell id="qtuPSVXZJJs0NWljnbDn-4" value="" style="edgeStyle=orthogonalEdgeStyle;rounded=0;orthogonalLoop=1;jettySize=auto;html=1;entryX=0;entryY=0.5;entryDx=0;entryDy=0;" parent="1" source="qtuPSVXZJJs0NWljnbDn-2" target="qtuPSVXZJJs0NWljnbDn-3" edge="1">
                    <mxGeometry relative="1" as="geometry">
                        <Array as="points">
                            <mxPoint x="70" y="260"/>
                        </Array>
                    </mxGeometry>
                </mxCell>
                <mxCell id="qtuPSVXZJJs0NWljnbDn-2" value="&lt;font style=&quot;font-size: 8px; line-height: 1.2;&quot;&gt;Travel&lt;/font&gt;" style="rounded=0;whiteSpace=wrap;html=1;" parent="1" vertex="1">
                    <mxGeometry x="40" y="190" width="90" height="20" as="geometry"/>
                </mxCell>
                <mxCell id="qtuPSVXZJJs0NWljnbDn-10" value="" style="edgeStyle=orthogonalEdgeStyle;rounded=0;orthogonalLoop=1;jettySize=auto;html=1;fontSize=8;" parent="1" source="qtuPSVXZJJs0NWljnbDn-3" target="qtuPSVXZJJs0NWljnbDn-9" edge="1">
                    <mxGeometry relative="1" as="geometry"/>
                </mxCell>
                <mxCell id="qtuPSVXZJJs0NWljnbDn-3" value="&lt;font style=&quot;font-size: 8px; line-height: 0.7;&quot;&gt;Get work permit&lt;/font&gt;" style="shape=hexagon;perimeter=hexagonPerimeter2;whiteSpace=wrap;html=1;fixedSize=1;rounded=0;" parent="1" vertex="1">
                    <mxGeometry x="110" y="250" width="90" height="20" as="geometry"/>
                </mxCell>
                <mxCell id="qtuPSVXZJJs0NWljnbDn-12" value="" style="edgeStyle=orthogonalEdgeStyle;rounded=0;orthogonalLoop=1;jettySize=auto;html=1;fontSize=8;" parent="1" source="qtuPSVXZJJs0NWljnbDn-9" target="qtuPSVXZJJs0NWljnbDn-11" edge="1">
                    <mxGeometry relative="1" as="geometry"/>
                </mxCell>
                <mxCell id="qtuPSVXZJJs0NWljnbDn-18" value="" style="edgeStyle=orthogonalEdgeStyle;rounded=0;orthogonalLoop=1;jettySize=auto;html=1;fontSize=8;" parent="1" source="qtuPSVXZJJs0NWljnbDn-9" target="qtuPSVXZJJs0NWljnbDn-17" edge="1">
                    <mxGeometry relative="1" as="geometry"/>
                </mxCell>
                <mxCell id="qtuPSVXZJJs0NWljnbDn-9" value="&lt;font style=&quot;font-size: 8px; line-height: 0.7;&quot;&gt;Get a new SIM&lt;/font&gt;" style="shape=hexagon;perimeter=hexagonPerimeter2;whiteSpace=wrap;html=1;fixedSize=1;rounded=0;" parent="1" vertex="1">
                    <mxGeometry x="110" y="300" width="90" height="20" as="geometry"/>
                </mxCell>
                <mxCell id="qtuPSVXZJJs0NWljnbDn-14" value="" style="edgeStyle=orthogonalEdgeStyle;rounded=0;orthogonalLoop=1;jettySize=auto;html=1;fontSize=8;" parent="1" source="qtuPSVXZJJs0NWljnbDn-11" target="qtuPSVXZJJs0NWljnbDn-13" edge="1">
                    <mxGeometry relative="1" as="geometry"/>
                </mxCell>
                <mxCell id="qtuPSVXZJJs0NWljnbDn-11" value="&lt;font style=&quot;font-size: 8px; line-height: 0.7;&quot;&gt;New bank account&lt;/font&gt;" style="shape=hexagon;perimeter=hexagonPerimeter2;whiteSpace=wrap;html=1;fixedSize=1;rounded=0;" parent="1" vertex="1">
                    <mxGeometry x="110" y="350" width="90" height="20" as="geometry"/>
                </mxCell>
                <mxCell id="qtuPSVXZJJs0NWljnbDn-16" value="" style="edgeStyle=orthogonalEdgeStyle;rounded=0;orthogonalLoop=1;jettySize=auto;html=1;fontSize=8;" parent="1" source="qtuPSVXZJJs0NWljnbDn-13" target="qtuPSVXZJJs0NWljnbDn-15" edge="1">
                    <mxGeometry relative="1" as="geometry"/>
                </mxCell>
                <mxCell id="qtuPSVXZJJs0NWljnbDn-13" value="&lt;font style=&quot;font-size: 8px; line-height: 0.7;&quot;&gt;Short term house&lt;/font&gt;" style="shape=hexagon;perimeter=hexagonPerimeter2;whiteSpace=wrap;html=1;fixedSize=1;rounded=0;" parent="1" vertex="1">
                    <mxGeometry x="110" y="400" width="90" height="20" as="geometry"/>
                </mxCell>
                <mxCell id="qtuPSVXZJJs0NWljnbDn-15" value="&lt;font style=&quot;font-size: 8px; line-height: 0.7;&quot;&gt;Internet&lt;/font&gt;" style="shape=hexagon;perimeter=hexagonPerimeter2;whiteSpace=wrap;html=1;fixedSize=1;rounded=0;" parent="1" vertex="1">
                    <mxGeometry x="110" y="450" width="90" height="20" as="geometry"/>
                </mxCell>
                <mxCell id="qtuPSVXZJJs0NWljnbDn-17" value="&lt;font style=&quot;font-size: 10px;&quot;&gt;with data plan&lt;/font&gt;" style="whiteSpace=wrap;html=1;rounded=0;" parent="1" vertex="1">
                    <mxGeometry x="270" y="302.5" width="120" height="15" as="geometry"/>
                </mxCell>
                <mxCell id="0tUOmXhnd2xkAQ1aW1cv-1" value="checklist" style="text;html=1;strokeColor=none;fillColor=none;align=center;verticalAlign=middle;whiteSpace=wrap;rounded=0;" vertex="1" parent="1">
                    <mxGeometry y="990" width="60" height="30" as="geometry"/>
                </mxCell>
            </root>
        </mxGraphModel>
    </diagram>
</mxfile>